<svg width="10" height="20" viewBox="0 0 10 20" fill="none" xmlns="http://www.w3.org/2000/svg">
<path d="M0.443496 16.9351L6.3361 9.99067L0.443496 3.04627C0.302891 2.88056 0.191357 2.68385 0.115262 2.46735C0.0391667 2.25085 3.48986e-08 2.0188 2.82285e-08 1.78446C2.15585e-08 1.55012 0.0391667 1.31808 0.115262 1.10158C0.191357 0.885077 0.30289 0.688359 0.443496 0.522657C0.584101 0.356954 0.751024 0.225511 0.934734 0.135834C1.11844 0.046156 1.31534 -3.49192e-09 1.51419 0C1.71303 3.49192e-09 1.90993 0.046156 2.09364 0.135834C2.27735 0.225511 2.44428 0.356954 2.58488 0.522657L9.55578 8.73782C10.1481 9.43584 10.1481 10.5634 9.55578 11.2614L2.58488 19.4766C2.44438 19.6425 2.27749 19.7741 2.09377 19.864C1.91004 19.9538 1.71309 20 1.51419 20C1.31529 20 1.11833 19.9538 0.934611 19.864C0.750887 19.7741 0.583998 19.6425 0.443496 19.4766C-0.133615 18.7786 -0.148802 17.6331 0.443496 16.9351Z" fill="#8E8E8E"/>
</svg>
